<svg xmlns="http://www.w3.org/2000/svg" xmlns:xlink="http://www.w3.org/1999/xlink" fill="none" version="1.1" width="24" height="24" viewBox="0 0 24 24"><defs><clipPath id="master_svg0_46_8964"><rect x="24" y="0" width="24" height="24" rx="0"/></clipPath></defs><g transform="matrix(0,1,-1,0,24,-24)" clip-path="url(#master_svg0_46_8964)"><g><path d="M35.29289,4.292893C35.68342,3.9023689,36.31658,3.9023689,36.70711,4.292893C36.70711,4.292893,43.7071,11.29289,43.7071,11.29289C44.0976,11.68342,44.0976,12.31658,43.7071,12.70711C43.3166,13.09763,42.6834,13.09763,42.2929,12.70711C42.2929,12.70711,37,7.414210000000001,37,7.414210000000001C37,7.414210000000001,37,19,37,19C37,19.552300000000002,36.552279999999996,20,36,20C35.447720000000004,20,35,19.552300000000002,35,19C35,19,35,7.414210000000001,35,7.414210000000001C35,7.414210000000001,29.70711,12.70711,29.70711,12.70711C29.316580000000002,13.09763,28.683417,13.09763,28.292893,12.70711C27.9023689,12.31658,27.9023689,11.68342,28.292893,11.29289C28.292893,11.29289,35.29289,4.292893,35.29289,4.292893C35.29289,4.292893,35.29289,4.292893,35.29289,4.292893Z" fill-rule="evenodd" fill="#000000" fill-opacity="1"/></g></g></svg>