<svg xmlns="http://www.w3.org/2000/svg" xmlns:xlink="http://www.w3.org/1999/xlink" fill="none" version="1.1" width="176" height="64" viewBox="0 0 176 64"><defs><clipPath id="master_svg0_68_05126"><rect x="28" y="19" width="120" height="26" rx="0"/></clipPath></defs><g><g><rect x="0" y="0" width="176" height="64" rx="4" fill="#93E63F" fill-opacity="0.75"/></g><g clip-path="url(#master_svg0_68_05126)"><g><path d="M87.19086367187501,26.8692115625L87.187863671875,23.9948835625L68.082763671875,23.9948835625L68.085861701875,26.8692115625L76.383513671875,26.8692115625L76.383513671875,39.2758015625L79.512263671875,39.2758015625L79.512263671875,26.8692115625L87.19086367187501,26.8692115625ZM100.049063671875,23.9948835625L89.494863671875,23.9948835625L89.494863671875,39.2758015625L92.623663671875,39.2758015625L92.623663671875,33.3051115625L96.276563671875,33.3051115625L103.830963671875,39.2758015625L108.840663671875,39.2758015625L101.205063671875,33.2807715625L101.209263671875,33.2654815625C103.28886367187499,33.1171215625,104.713063671875,32.5623815625,105.651763671875,31.772771562499997C106.771263671875,30.8309415625,107.111063671875,29.6297415625,107.111063671875,28.650011562499998C107.111063671875,27.6702815625,106.771263671875,26.4691115625,105.651763671875,25.5272415625C104.547863671875,24.5986595625,102.772463671875,23.9948835625,100.049063671875,23.9948835625ZM127.646563671875,38.0224015625L127.97176367187501,37.8308015625L127.97176367187501,30.4308515625L116.078563671875,30.4308515625L116.08166367187499,33.3051115625L124.938463671875,33.3051115625L124.938463671875,36.0042015625C123.88016367187501,36.3691015625,122.361163671875,36.6341015625,120.221263671875,36.6341015625C117.79966367187501,36.6341015625,115.600863671875,36.0632015625,114.030863671875,35.1311015625C112.45456367187501,34.1954015625,111.602963671875,32.962461562499996,111.602963671875,31.6353615625C111.602963671875,30.3075515625,112.455363671875,29.0696315625,114.03166367187501,28.1292215625C115.602463671875,27.1926715625,117.800363671875,26.6172015625,120.221263671875,26.6172015625C123.366063671875,26.6172015625,125.702563671875,27.4710315625,126.73066367187499,28.311141562499998L127.799863671875,29.1851415625L127.799863671875,25.4372515625L127.47086367187501,25.2463315625C125.762163671875,24.2535285625,122.916263671875,23.7041015625,120.221263671875,23.7041015625C117.098163671875,23.7041015625,114.198863671875,24.4941155625,112.05816367187501,25.8644015625C109.918363671875,27.2341915625,108.474463671875,29.2352515625,108.474463671875,31.6353615625C108.474463671875,34.0652015625,109.87496367187501,36.0690015625,112.007863671875,37.4353015625C114.135363671875,38.798401562500004,117.037063671875,39.5666015625,120.221263671875,39.5666015625C123.771763671875,39.5666015625,126.098163671875,38.9347015625,127.646563671875,38.0224015625ZM147.99936367187502,37.7629015625L147.99936367187502,33.9909015625L146.920163671875,34.909901562499996C145.64036367187498,35.9995015625,143.609663671875,36.6535015625,141.147763671875,36.6535015625C138.510063671875,36.6535015625,136.537463671875,36.0219015625,135.242963671875,35.0861015625C133.959363671875,34.1575015625,133.332263671875,32.9279615625,133.332263671875,31.6353615625C133.332263671875,30.3434015625,133.958563671875,29.1189615625,135.242163671875,28.1951715625C136.535863671875,27.2638915625,138.50856367187498,26.636581562499998,141.147763671875,26.636581562499998C143.718063671875,26.636581562499998,145.628763671875,27.4131215625,146.754463671875,28.3469915625L147.826663671875,29.2366615625L147.826663671875,25.4976515625L147.526363671875,25.3022215625C145.894363671875,24.241553562500002,143.653063671875,23.7234912625,141.147763671875,23.7234912625C134.493563671875,23.7234912625,130.203763671875,27.2066915625,130.203763671875,31.6353615625C130.203763671875,33.9628015625,131.265163671875,35.9786015625,133.18596367187502,37.391901562499996C135.090463671875,38.793701562500004,137.81096367187502,39.5860015625,141.147763671875,39.5860015625C143.656163671875,39.5860015625,146.02666367187499,39.112801562499996,147.711363671875,37.9598015625L147.99936367187502,37.7629015625ZM100.049063671875,30.4308515625L92.623663671875,30.4308515625L92.623663671875,26.8692115625L100.049063671875,26.8692115625C101.812563671875,26.8692115625,102.796863671875,27.1950315625,103.322563671875,27.5596615625C103.814263671875,27.900661562499998,103.944163671875,28.3008215625,103.944163671875,28.650011562499998C103.944163671875,28.999201562499998,103.814263671875,29.3993615625,103.322563671875,29.7403515625C102.796863671875,30.1049915625,101.812563671875,30.4308515625,100.049063671875,30.4308515625Z" fill-rule="evenodd" fill="#111111" fill-opacity="1" style="mix-blend-mode:passthrough"/></g><g><path d="M46.76220703125,38.740388671874996C48.68901703125,36.984688671875,49.90078703125,34.438688671875,49.90078703125,31.605768671874998C49.90078703125,28.772878671875,48.68901703125,26.226838671875,46.76220703125,24.471166671875C47.71887803125,23.929475671875,48.795707031250004,23.579744671875,49.94197703125,23.473388671875C51.77232703125,25.668588671875,52.87570703125,28.506568671875,52.87570703125,31.605768671874998C52.87570703125,34.704988671875,51.77232703125,37.542988671875,49.94197703125,39.738188671875C48.795707031250004,39.631788671875,47.71887803125,39.282088671875,46.76220703125,38.740388671874996Z" fill-rule="evenodd" fill="#000000" fill-opacity="1" style="mix-blend-mode:passthrough"/></g><g><path d="M40.4375,19C41.4671,19,42.4675,19.126817,43.4243,19.365882C43.6163,19.413846,43.8068,19.476582,43.9969,19.532298C44.5373,19.690726,45.0624,19.884717,45.5694,20.11153L45.569199999999995,20.11992C47.1339,19.400569,48.8715,19,50.7014,19C57.5704,19,63.1389,24.64424,63.1389,31.6068C63.1389,38.5693,57.5704,44.213499999999996,50.7014,44.213499999999996C48.8714,44.213499999999996,47.133700000000005,43.8129,45.5691,43.0935L45.5694,43.1078C45.1391,43.300399999999996,44.6958,43.4692,44.2411,43.6128C43.8507,43.736000000000004,43.457300000000004,43.8464,43.0573,43.9333C42.2126,44.1169,41.3362,44.213499999999996,40.4375,44.213499999999996C33.56844,44.213499999999996,28,38.5693,28,31.6068C28,24.64424,33.56844,19,40.4375,19ZM37.220259999999996,40.6104C38.3049,41.0088,39.4807,41.214200000000005,40.7052,41.1857C41.2849,41.1723,41.8512,41.1071,42.4,40.9946C39.8611,38.6864,38.2639,35.3356,38.2639,31.6068C38.2639,27.88042,39.8589,24.5317,42.3947,22.22376C41.8475,22.11189,41.283,22.04703,40.7052,22.03363C39.6813,22.009900000000002,38.6917,22.14953,37.7608,22.42878C37.26299,22.57812,36.77293,22.75328,36.436930000000004,22.91239C33.21058,24.44022,30.97508,27.758850000000002,30.97508,31.6068C30.97508,35.3986,33.14596,38.6766,36.29665,40.2333C36.59626,40.3812,36.90191,40.4935,37.220259999999996,40.6104ZM60.1638,31.6068C60.1638,36.903800000000004,55.9273,41.197900000000004,50.7014,41.197900000000004C45.4755,41.197900000000004,41.239000000000004,36.903800000000004,41.239000000000004,31.6068C41.239000000000004,26.30969,45.4755,22.01557,50.7014,22.01557C55.9273,22.01557,60.1638,26.30969,60.1638,31.6068Z" fill-rule="evenodd" fill="#111111" fill-opacity="1" style="mix-blend-mode:passthrough"/></g></g></g></svg>