<svg xmlns="http://www.w3.org/2000/svg" xmlns:xlink="http://www.w3.org/1999/xlink" fill="none" version="1.1" width="176" height="64" viewBox="0 0 176 64"><defs><clipPath id="master_svg0_68_04132"><rect x="25" y="20" width="126" height="23" rx="0"/></clipPath></defs><g><g><rect x="0" y="0" width="176" height="64" rx="4" fill="#93E63F" fill-opacity="0.75"/></g><g clip-path="url(#master_svg0_68_04132)"><g><path d="M47.5953,26.7255328125L47.141,25.9243928125L43.9775,20.3486328125L31.32695,20.3486328125L28.16348,25.9243928125L27.70918,26.7255328125L25.903612,29.9080628125L25,31.5001328125C27.10843,35.2179328125,29.21686,38.933932812500004,31.3253,42.6516328125L33.14419,42.6516328125L36.7553,36.2866328125L40.3664,36.2866328125L43.080600000000004,31.5001328125L40.3731,26.7255328125L30.313589999999998,26.7255328125L28.50803,29.9080628125C30.326909999999998,29.9080628125,36.747,29.8962128125,38.560900000000004,29.8962128125L38.5675,29.9080628125L39.4695,31.5001328125L38.560900000000004,33.1041328125L34.92312,33.1041328125C34.02283,34.6911328125,33.122550000000004,36.278132812500004,32.22055,37.8651328125L28.60946,31.5001328125L29.51307,29.9080628125L31.31863,26.7255328125L33.13083,23.5311528125L42.172,23.5311528125L43.9842,26.7255328125L45.789699999999996,29.9080628125L46.6917,31.5001328125C45.1857,34.1559328125,43.678,36.8133328125,42.172,39.4691328125L38.5875,39.4691328125L36.7819,42.6516328125L43.9775,42.6516328125C46.086,38.933932812500004,48.1944,35.2179328125,50.3029,31.5001328125L49.4009,29.9080628125L47.5953,26.7255328125Z" fill="#000000" fill-opacity="1" style="mix-blend-mode:passthrough"/></g><g><path d="M66.18568359375,35.685125L66.18568359375,37.893425L75.42538359375,37.893425L75.42538359375,35.418324999999996L71.60998359375,35.418324999999996C70.89688359375,35.418324999999996,70.57908359375,35.646225,70.08278359375,36.064425C70.00058359375,36.133725,69.87998359375,36.128425,69.80458359375,36.051625C69.71898359375,35.964525,69.72508359375,35.821425,69.81788359375,35.742125L71.11338359375,34.636775L71.85988359375,33.935835C72.76598359375001,33.133555,73.46488359375,32.444945,73.95648359375,31.870155C74.45218359375,31.295295,74.79558359375,30.770125,74.98648359375,30.294515C75.17748359375,29.818975000000002,75.27298359375,29.339245,75.27298359375,28.855415C75.27298359375,28.094465,75.07998359375,27.426625,74.69398359375,26.851765C74.31208359375,26.272795,73.77158359375,25.82204,73.07278359375,25.499468C72.37388359375001,25.176904,71.55118359375,25.015625,70.60438359375,25.015625C69.68608359375,25.015625,68.87958359375,25.187247,68.18478359375,25.530484C67.49408359375,25.869594,66.95778359375,26.353445,66.57578359375,26.982025C66.19388359375,27.610625,66.00288359375,28.357075000000002,66.00288359375,29.221395L68.86128359375,29.221395C68.86128359375,28.836805,68.93248359374999,28.510065,69.07458359375,28.241315C69.22088359375,27.972495,69.42408359375,27.767795,69.68408359375,27.627145C69.94418359375,27.482455,70.24678359375,27.410035,70.59228359375,27.410035C70.93348359375,27.410035,71.23618359375,27.478265,71.50028359375,27.614735C71.76448359375,27.751205,71.97168359375,27.945585,72.12198359375,28.197895C72.27238359374999,28.446015,72.34748359375,28.745775000000002,72.34748359375,29.097335C72.34748359375,29.411595,72.28458359375,29.703135,72.15858359375,29.971955C72.03258359375,30.236665000000002,71.84978359375,30.501305000000002,71.60998359375,30.765945000000002C71.37028359375,31.026474999999998,71.07978359375,31.313905,70.73848359375,31.628235L66.18568359375,35.685125ZM115.62268359375,28.365235L115.62268359375,30.598395L113.93468359375001,30.598395L113.93468359375001,34.897165C113.93468359375001,35.083225,113.96278359375,35.234225,114.01968359375,35.350025C114.14768359375,35.583825,114.44558359375,35.690825000000004,114.69758359375,35.690825000000004C114.80238359375,35.690825000000004,115.18518359375,35.690825000000004,115.79318359375,35.591925L115.79318359375,37.756825C115.65148359375,37.798125,115.45018359375,37.849925,115.18998359375,37.911925C114.93378359375001,37.973925,114.62708359375,38.013225,114.26958359375,38.029725C113.57108359374999,38.062825000000004,112.97128359375,37.980125,112.47208359375,37.781625C111.97628359375,37.579025,111.59618359375,37.264725,111.33188359375,36.838825C111.07238359375,36.412825,110.94638359375,35.877224999999996,110.95388359374999,35.232124999999996L110.95388359374999,30.598395L109.62678359374999,30.598395L109.62678359374999,28.365235L110.95388359374999,28.365235L110.95388359374999,26.082445L113.93468359375001,26.082445L113.93468359375001,28.365235L115.62268359375,28.365235ZM126.35738359375,37.893625L126.35738359375,28.365445L129.25268359375002,28.365445L129.25268359375002,28.609315C129.25268359375002,29.018435,129.14648359375002,29.420234999999998,128.94448359375,29.774015L128.80408359375,30.020395C128.76578359375,30.086815,128.77668359375,30.170875,128.83008359375,30.225234999999998C128.92048359375002,30.317025,129.07798359375,30.276605,129.12798359375,30.157215C129.36628359374998,29.587855,129.85318359375,28.963375,130.18528359375,28.700405C130.57088359375,28.390255,131.02008359375,28.235174999999998,131.53228359374998,28.235174999999998C131.67058359375,28.235174999999998,131.81238359374998,28.245565,131.95888359375,28.266195C132.10478359375,28.282785,132.24098359375,28.309615,132.36698359375,28.346835L132.36698359375,30.983195000000002C132.22458359375,30.933565,132.03768359375,30.894325000000002,131.80618359375,30.865335C131.57888359375,30.836405,131.37548359375,30.821915,131.19668359374998,30.821915C130.84338359375,30.821915,130.52428359375,30.902555,130.24008359375,31.063835C129.95998359375,31.220995000000002,129.73818359375,31.442215,129.57588359375,31.727555C129.41698359375,32.008785,129.33828359375002,32.339635,129.33828359375002,32.720105000000004L129.33828359375002,37.893625L126.35738359375,37.893625ZM134.24948359375,37.484125C134.96098359375,37.877025,135.80598359375,38.073425,136.78528359375,38.073425C137.60218359375,38.073425,138.32118359375,37.947225,138.94298359375,37.695025C139.56408359375,37.438625,140.06608359375,37.080925,140.44818359375,36.621925C140.83438359375,36.158725000000004,141.08428359375,35.614925,141.19798359375,34.990415L138.46158359375,34.909774999999996C138.38418359374998,35.120725,138.26848359375,35.298525,138.11368359375,35.443225C137.95968359375001,35.588025,137.77478359375,35.697525,137.55908359375002,35.772025C137.34398359375,35.846424999999996,137.10438359375001,35.883625,136.83998359375,35.883625C136.45788359375,35.883625,136.12918359374999,35.803025,135.85258359375,35.641725C135.57658359375,35.480425,135.36298359375002,35.255125,135.21298359374998,34.965605C135.06228359375,34.671975,134.98698359374998,34.330805,134.98698359374998,33.942105L134.98698359374998,33.861465L141.22808359375,33.861465L141.22808359375,33.104625C141.22808359375,32.323045,141.11648359375,31.630395,140.89328359375,31.026615C140.66928359374998,30.418644999999998,140.35638359375,29.907975,139.95438359374998,29.494395C139.55248359375,29.080885000000002,139.07448359375002,28.768635,138.52258359375,28.557735C137.96988359375,28.346835,137.36048359375002,28.241385,136.69348359375,28.241385C135.75118359375,28.241385,134.93218359374998,28.448104999999998,134.23788359374998,28.861685C133.54278359375002,29.271085,133.00458359375,29.845945,132.62248359375002,30.586195C132.24028359375,31.322265,132.04928359375,32.182465,132.04928359375,33.166655C132.04928359375,34.179845,132.23828359375,35.054525,132.61628359374998,35.790625C132.99838359375002,36.522625,133.54278359375002,37.087125,134.24948359375,37.484125ZM134.98908359375,32.099735C135.00408359375,31.793065,135.08428359375,31.518045,135.23078359375,31.274735C135.38558359375,31.014205,135.59438359375,30.809505,135.85878359375,30.660635C136.12308359374998,30.507575,136.42158359375,30.431125,136.75438359375,30.431125C137.08378359375,30.431125,137.37418359375,30.503465,137.62618359375,30.648225C137.88228359375,30.788805,138.08358359375,30.985215,138.22948359375,31.237515000000002C138.37598359375,31.489745,138.45128359375002,31.777175,138.45538359375,32.099735L134.98908359375,32.099735ZM147.36508359375,31.349165L150.10148359375,31.274735C150.02418359375,30.331805,149.62008359375,29.591625,148.88878359375002,29.053975C148.15738359375,28.512225,147.15768359375,28.241385,145.89008359375,28.241385C145.04508359375,28.241385,144.31168359375,28.361265,143.68988359374998,28.601155C143.06808359375,28.840985,142.58878359375,29.188355,142.25118359375,29.643265C141.91428359374999,30.094065,141.74788359375,30.637845,141.75198359375,31.274735C141.74788359375,32.002575,141.97518359375,32.602185,142.43398359374999,33.073615000000004C142.89348359375,33.540935,143.59268359375,33.861465,144.53078359375002,34.035155L146.16398359375,34.351505C146.55438359375,34.425945,146.84058359375,34.529305,147.02338359375,34.661654999999996C147.20628359375002,34.789835,147.30008359375,34.961495,147.30418359375,35.176525C147.30008359375,35.416425000000004,147.17818359375002,35.608725,146.93848359375,35.753425C146.69888359375,35.898125,146.38798359375,35.970525,146.00588359375,35.970525C145.58338359375,35.970525,145.23608359374998,35.879525,144.96358359375,35.697525C144.69178359375002,35.515625,144.52258359375,35.250925,144.45758359375,34.903575000000004L141.51438359374998,34.978015C141.62388359375,35.920825,142.06288359375,36.673525,142.83048359375,37.236025C143.60228359375,37.794225,144.65678359375,38.073425,145.99348359375,38.073425C146.83028359374998,38.073425,147.57398359375,37.941125,148.22448359375,37.676425C148.87438359375,37.407624999999996,149.38658359375,37.031325,149.76048359375,36.547425000000004C150.13778359375,36.063525,150.32888359375,35.494925,150.33298359375,34.841544999999996C150.32888359375,34.146805,150.09738359375,33.588535,149.63858359375,33.166655C149.18318359375002,32.744855,148.48818359375,32.442994999999996,147.55408359375,32.261015L145.74968359375,31.913645C145.35598359375,31.830915,145.08138359375,31.721355,144.92728359375002,31.584885C144.77668359375,31.448415,144.70338359375,31.287135,144.70748359375,31.101045C144.70338359375,30.861155,144.82118359375,30.670945,145.06088359375002,30.530365C145.30458359375,30.389725,145.59978359375,30.319395,145.94488359375,30.319395C146.20918359375,30.319395,146.44068359375,30.364905,146.63998359375,30.455935C146.84268359375,30.542775,147.00768359375002,30.664745,147.13368359375,30.821915C147.25898359375,30.974895,147.33638359374999,31.150675,147.36508359375,31.349165ZM122.36778359375,28.365305L122.36778359375,33.780685C122.36778359375,34.148755,122.29658359375,34.463025,122.15488359375,34.723545C122.01648359375,34.979965,121.82758359375,35.176425,121.58788359375,35.312925C121.35228359375,35.445225,121.08588359375,35.511425,120.78938359375,35.511425C120.33468359375,35.511425,119.97448359375,35.362525,119.71088359375,35.064825C119.44658359375,34.766965,119.31228359375001,34.359665,119.30818359375,33.842715L119.30818359375,28.365305L116.32808359375,28.365305L116.32808359375,34.438204999999996C116.33218359375,35.157825,116.46838359374999,35.786325,116.73618359375,36.324025C117.00458359375,36.857425,117.38058359375,37.273025000000004,117.86398359374999,37.570825C118.34748359375,37.868625,118.90828359375,38.017525,119.54588359375,38.017525C120.24908359375,38.017525,120.84828359375,37.847925000000004,121.34408359375,37.508825C121.79128359375,37.201525000000004,122.35348359375,36.375425,122.61438359375,35.787324999999996C122.65818359375,35.689225,122.77868359375,35.649425,122.86638359375,35.709225C122.93478359375,35.755525,122.95878359375,35.846325,122.92248359375,35.921125L122.78618359375,36.200325C122.59928359375,36.583425,122.50208359375,37.005325,122.50208359375,37.433025L122.50208359375,37.893425L125.34248359375,37.893425L125.34248359375,28.365305L122.36778359375,28.365305ZM103.32338359375001,37.893525L103.32338359375001,32.459514999999996C103.32748359375,32.095625,103.39248359375,31.785474999999998,103.51848359375,31.529055C103.64858359375,31.272645,103.83148359375,31.076235,104.06698359375,30.939775C104.30668359375,30.799125,104.58268359375,30.728865,104.89558359374999,30.728865C105.36668359375,30.728865,105.73448359375,30.877735,105.99878359375,31.175485000000002C106.26718359374999,31.473225,106.39938359375,31.886745,106.39528359375001,32.416095L106.39528359375001,37.893525L109.37548359375,37.893525L109.37548359375,31.820605C109.37958359375,31.105165,109.24538359375,30.480745,108.97278359375,29.947215C108.70508359375,29.409645,108.32708359374999,28.991945,107.83948359375,28.694205C107.35598359375,28.392275,106.78488359375001,28.241385,106.12688359375,28.241385C105.43588359374999,28.241385,104.84078359374999,28.408865,104.34088359375,28.743825C103.89168359375,29.041225,103.25208359375,29.776105,102.97688359375,30.345185C102.93228359375,30.437185,102.81728359375,30.475105,102.73378359374999,30.418225C102.66248359375,30.370205,102.64338359375,30.273115,102.68988359375,30.200565L102.94538359375,29.800575000000002C103.09668359375,29.564165,103.17678359375,29.288095,103.17678359375,29.006025L103.17678359375,28.842795L103.17678359375,28.365445L100.34318359375,28.365445L100.34318359375,37.893525L103.32338359375001,37.893525ZM95.06418359375,38.073425C94.08498359375,38.073425,93.23948359375001,37.877025,92.52848359375,37.484125C91.82148359375,37.087125,91.27708359375,36.522625,90.89508359375,35.790625C90.51718359374999,35.054525,90.32828359375,34.179845,90.32828359375,33.166655C90.32828359375,32.182465,90.51928359375,31.322265,90.90118359375,30.586195C91.28318359375001,29.845945,91.82148359375,29.271085,92.51628359375,28.861685C93.21108359375,28.448104999999998,94.02948359375,28.241385,94.97238359375001,28.241385C95.63868359375,28.241385,96.24818359375,28.346835,96.80078359375,28.557735C97.35338359375001,28.768635,97.83068359375,29.080885000000002,98.23338359375,29.494395C98.63528359375,29.907975,98.94828359375,30.418644999999998,99.17148359375,31.026615C99.39538359375,31.630395,99.50708359375,32.323045,99.50708359375,33.104625L99.50708359375,33.861465L93.26598359375001,33.861465L93.26598359375001,33.942105C93.26598359375001,34.330805,93.34108359375,34.671975,93.49118359375001,34.965605C93.64188359375001,35.255125,93.85488359375,35.480425,94.13148359375,35.641725C94.40748359375,35.803025,94.73688359375001,35.883625,95.11898359375,35.883625C95.38258359375,35.883625,95.62228359375,35.846424999999996,95.83798359375001,35.772025C96.05298359375,35.697525,96.23788359375,35.588025,96.39268359375001,35.443225C96.54678359375,35.298525,96.66248359375,35.120725,96.73988359375,34.909774999999996L99.47618359375,34.990415C99.36258359375,35.614925,99.11258359375,36.158725000000004,98.72708359375,36.621925C98.34498359375,37.080925,97.84298359375,37.438625,97.22128359375,37.695025C96.59948359375,37.947225,95.88048359375,38.073425,95.06418359375,38.073425ZM93.26768359375001,32.099735L96.73368359375,32.099735C96.72958359375,31.777175,96.65488359375,31.489745,96.50838359375,31.237515000000002C96.36188359375001,30.985215,96.16118359375,30.788805,95.90508359374999,30.648225C95.65308359375,30.503465,95.36278359375001,30.431125,95.03338359375,30.431125C94.70058359375,30.431125,94.40128359375001,30.507575,94.13768359375,30.660635C93.87338359374999,30.809505,93.66378359375,31.014205,93.50968359375,31.274735C93.36318359375,31.518045,93.28248359375,31.793065,93.26768359375001,32.099735ZM55.70068359375,37.893425L55.70068359375,25.189317L60.85682359375,25.189317C61.79134359375,25.189317,62.59781359375,25.375408,63.27636359375,25.747604C63.959023593750004,26.115655,64.48514359375,26.630515,64.85492359375,27.292175C65.22463359375,27.949705,65.40953359375,28.714765,65.40953359375,29.587365C65.40953359375,30.464085,65.22060359375,31.231245,64.84273359375,31.888765C64.46891359375,32.542175,63.934643593749996,33.048735,63.23979359375,33.408505C62.54501359375,33.768285,61.72019359375,33.948245,60.76533359375,33.948245L58.71756359375,33.948245L58.71756359375,37.893425L55.70068359375,37.893425ZM58.71756359375,31.528985L60.20463359375,31.528985C60.65974359375,31.528985,61.03965359375,31.448345,61.34438359375,31.287065C61.65315359375,31.125795,61.88680359375,30.900395,62.04526359375,30.610865C62.20372359375,30.317305,62.28295359375,29.976065,62.28295359375,29.587365C62.28295359375,29.194485,62.20372359375,28.855415,62.04526359375,28.570075C61.88680359375,28.280555,61.65315359375,28.057245,61.34438359375,27.900075C61.03555359375,27.742975,60.65563359375,27.664365,60.20463359375,27.664365L58.71756359375,27.664365L58.71756359375,31.528985ZM84.15698359375,29.841695L82.76128359375,25.189317L79.38488359375,25.189317L83.59628359375,37.893425L87.61268359375,37.893425L91.82418359375,25.189317L88.44768359375,25.189317L87.05198359375,29.841695L86.35418359375001,32.167895L86.00528359375,33.331005C85.89138359374999,33.644635,85.83308359375,33.976395,85.83308359375,34.310874999999996L85.83308359375,34.783415C85.83308359375,34.920445,85.72398359375,35.031525,85.58928359375,35.031525C85.45458359375,35.031525,85.34548359375,34.920445,85.34548359375,34.783415L85.34548359375,34.272815C85.34548359375,33.962805,85.30048359375,33.654534999999996,85.21188359375,33.357905L85.20378359375,33.331005L84.85488359375,32.167895L84.15698359375,29.841695Z" fill-rule="evenodd" fill="#000000" fill-opacity="1" style="mix-blend-mode:passthrough"/></g></g></g></svg>