<svg xmlns="http://www.w3.org/2000/svg" xmlns:xlink="http://www.w3.org/1999/xlink" fill="none" version="1.1" width="176" height="64" viewBox="0 0 176 64"><defs><clipPath id="master_svg0_68_6292"><rect x="56" y="10" width="65" height="45" rx="0"/></clipPath></defs><g><g><rect x="0" y="0" width="176" height="64" rx="4" fill="#93E63F" fill-opacity="0.75"/></g><g clip-path="url(#master_svg0_68_6292)"><g><path d="M56.000194921,48.374500265625C56.000194921,48.249343265625,56.0958083,48.142822265625,56.229552,48.142822265625L57.07033,48.142822265625C57.19459,48.142822265625,57.29969,48.249343265625,57.29969,48.374500265625L57.29969,50.982392265625L59.70727,48.239499765625C59.745400000000004,48.190986665625,59.80267,48.142822265625,59.88882,48.142822265625L60.84439,48.142822265625C61.02593,48.142822265625,61.121340000000004,48.345672265625,60.9971,48.490517265625L58.503569999999996,51.330082265625L61.17844,54.565162265625C61.27405,54.691022265625,61.1978,54.903372265625,61.006569999999996,54.903372265625L59.96507,54.903372265625C59.86967,54.903372265625,59.81218,54.864692265625,59.79299,54.835512265625L57.2995,51.725592265625L57.2995,54.671342265625C57.2995,54.797192265625,57.1944,54.903372265625,57.07014,54.903372265625L56.229357,54.903372265625C56.0958069,54.903372265625,56,54.797192265625,56,54.671342265625L56.000194921,48.374500265625L56.000194921,48.374500265625Z" fill="#000000" fill-opacity="1" style="mix-blend-mode:passthrough"/></g><g><path d="M63.593017578125,48.326336265625C63.593017578125,48.229656065625,63.678985378125,48.142822265625,63.774598578125,48.142822265625L64.663177578125,48.142822265625C64.758577578125,48.142822265625,64.844717578125,48.229656065625,64.844717578125,48.326336265625L64.844717578125,54.719502265624996C64.844717578125,54.816182265625,64.758787578125,54.903372265625,64.663177578125,54.903372265625L63.774598578125,54.903372265625C63.679160078125,54.903372265625,63.593017578125,54.816182265625,63.593017578125,54.719502265624996L63.593017578125,48.326336265625Z" fill="#000000" fill-opacity="1" style="mix-blend-mode:passthrough"/></g><g><path d="M67.947509765625,48.220164578125C67.947509765625,48.123486778125,68.033616865625,48.046142578125,68.129054765625,48.046142578125L68.367912765625,48.046142578125L72.342239765625,52.314812578125L72.351749765625,52.314812578125L72.351749765625,48.326336578125C72.351749765625,48.229656578125,72.428209765625,48.142822778125,72.533289765625,48.142822778125L73.412399765625,48.142822778125C73.507809765625,48.142822778125,73.593949765625,48.229305578125,73.593949765625,48.326336578125L73.593949765625,54.825672578125C73.593949765625,54.922352578125,73.508009765625,55.000052578125,73.412399765625,55.000052578125L73.182839765625,55.000052578125L69.189319765625,50.566842578125L69.179819765625,50.566842578125L69.179819765625,54.719502578125C69.179819765625,54.816182578125,69.103389765625,54.903372578125,68.998269765625,54.903372578125L68.129054765625,54.903372578125C68.033616865625,54.903372578125,67.947509765625,54.816182578125,67.947509765625,54.719502578125L67.947509765625,48.220164578125Z" fill="#000000" fill-opacity="1" style="mix-blend-mode:passthrough"/></g><g><path d="M79.64869,48.046142578125C80.50844000000001,48.046142578125,81.33023,48.384696578125,81.97978,48.944384578125C82.05624,49.021728578125,82.06571,49.137742578125,81.98946,49.215082578125L81.39701,49.842622578125C81.32038,49.919972578125,81.23444,49.919972578125,81.14848,49.842622578125C80.73779,49.475952578125,80.23145,49.282582578125,79.70596,49.282582578125C78.51175,49.282582578125,77.56586,50.315832578125,77.56586,51.523092578125C77.56586,52.720512578124996,78.51175,53.734772578125,79.71543,53.734772578125C80.25043,53.734772578125,80.66111,53.570592578125,80.85217,53.493602578125L80.85217,52.672702578125L80.08803,52.672702578125C79.98291,52.672702578125,79.90649,52.595362578125,79.90649,52.498682578125L79.90649,51.735792578125C79.90649,51.629622578125,79.98312,51.552272578125,80.08803,51.552272578125L81.9225,51.552272578125C82.0179,51.552272578125,82.09437,51.639112578125,82.09437,51.735792578125L82.09437,54.208332578125C82.09437,54.285322578125,82.05624,54.333482578125,82.01794,54.363022578125Q81.03392,54.990552578125,79.64869,54.990552578125C77.74744,54.990552578125,76.21875,53.464422578125,76.21875,51.532942578125C76.218959296,49.601102578125,77.74744,48.046142578125,79.64869,48.046142578125Z" fill="#000000" fill-opacity="1" style="mix-blend-mode:passthrough"/></g><g><path d="M89.242919921875,48.326336265625C89.242919921875,48.229656065625,89.319383521875,48.142822265625,89.424465921875,48.142822265625L92.156669921875,48.142822265625C93.303259921875,48.142822265625,94.239459921875,49.069893265625,94.239459921875,50.219502265625C94.239459921875,51.107902265625,93.656559921875,51.832122265625,92.825539921875,52.169972265625L94.134629921875,54.623172265625C94.201369921875,54.748682265625,94.134629921875,54.903372265625,93.972119921875,54.903372265625L92.968819921875,54.903372265625C92.882849921875,54.903372265625,92.835319921875,54.855202265624996,92.816099921875,54.816182265625L91.545459921875,52.257152265625L90.484939921875,52.257152265625L90.484939921875,54.719502265624996C90.484939921875,54.816182265625,90.398799921875,54.903372265625,90.303399921875,54.903372265625L89.424465921875,54.903372265625C89.319383521875,54.903372265625,89.242919921875,54.816182265625,89.242919921875,54.719502265624996L89.242919921875,48.326336265625ZM92.051829921875,51.223562265625C92.558199921875,51.223562265625,92.997479921875,50.779542265625,92.997479921875,50.238482265625C92.997479921875,49.726962265625,92.558199921875,49.301572265625,92.051829921875,49.301572265625L90.494409921875,49.301572265625L90.494409921875,51.223562265625L92.051829921875,51.223562265625Z" fill="#000000" fill-opacity="1" style="mix-blend-mode:passthrough"/></g><g><path d="M96.969482421875,48.326336265625C96.969482421875,48.229656065625,97.055450921875,48.142822265625,97.151201421875,48.142822265625L98.039532421875,48.142822265625C98.134942421875,48.142822265625,98.220912421875,48.229656065625,98.220912421875,48.326336265625L98.220912421875,54.719502265624996C98.220912421875,54.816182265625,98.135292421875,54.903372265625,98.039532421875,54.903372265625L97.151201421875,54.903372265625C97.055450921875,54.903372265625,96.969482421875,54.816182265625,96.969482421875,54.719502265624996L96.969482421875,48.326336265625Z" fill="#000000" fill-opacity="1" style="mix-blend-mode:passthrough"/></g><g><path d="M100.454818075,48.393837265625C100.397156475,48.268328265625,100.474038575,48.142822265625,100.616967875,48.142822265625L101.591616875,48.142822265625C101.677236875,48.142822265625,101.734896875,48.201181765625,101.754116875,48.249343265625L103.588446875,52.402002265625L103.655196875,52.402002265625L105.489876875,48.249343265625C105.508746875,48.201181765625,105.566406875,48.142822265625,105.652016875,48.142822265625L106.626666875,48.142822265625C106.769956875,48.142822265625,106.846486875,48.268328265625,106.789176875,48.393837265625L103.827476875,54.893872265625C103.798826875,54.951532265625,103.750946875,55.000052265625,103.664626875,55.000052265625L103.569576875,55.000052265625C103.483606875,55.000052265625,103.435726875,54.951532265625,103.407076875,54.893872265625L100.454818075,48.393837265625Z" fill="#000000" fill-opacity="1" style="mix-blend-mode:passthrough"/></g><g><path d="M109.02197265625,48.326336265625C109.02197265625,48.229656065625,109.09850285625,48.142822265625,109.20369465625,48.142822265625L113.09181265625,48.142822265625C113.19735265625,48.142822265625,113.27353265625,48.229656065625,113.27353265625,48.326336265625L113.27353265625,49.118406265625C113.27353265625,49.215082265625,113.19700265624999,49.301922265625,113.09181265625,49.301922265625L110.26431265625,49.301922265625L110.26431265625,50.885712265625L112.62388265625,50.885712265625C112.71963265625,50.885712265625,112.80560265625,50.972902265625,112.80560265625,51.069232265625L112.80560265625,51.871142265625C112.80560265625,51.977312265625,112.71963265625,52.054662265625,112.62388265625,52.054662265625L110.26431265625,52.054662265625L110.26431265625,53.744972265625L113.09181265625,53.744972265625C113.19735265625,53.744972265625,113.27353265625,53.831452265625,113.27353265625,53.928482265625L113.27353265625,54.720202265625C113.27353265625,54.816882265625,113.19700265624999,54.904072265625004,113.09181265625,54.904072265625004L109.20369465625,54.904072265625004C109.09850285625,54.904072265625004,109.02197265625,54.816882265625,109.02197265625,54.720202265625L109.02197265625,48.326336265625Z" fill="#000000" fill-opacity="1" style="mix-blend-mode:passthrough"/></g><g><path d="M116.00341796875,48.326336265625C116.00341796875,48.229656065625,116.07995346875,48.142822265625,116.18513996875,48.142822265625L118.91758796875,48.142822265625C120.06381796875,48.142822265625,121.00002796875,49.069893265625,121.00002796875,50.219502265625C121.00002796875,51.107902265625,120.41712796875,51.832122265625,119.58610796875,52.169972265625L120.89484796875,54.623172265625C120.96194796875,54.748682265625,120.89484796875,54.903372265625,120.73269796875,54.903372265625L119.72903796875,54.903372265625C119.64341796875,54.903372265625,119.59554796875,54.855202265624996,119.57631796875,54.816182265625L118.30602796875,52.257152265625L117.24540796875,52.257152265625L117.24540796875,54.719502265624996C117.24540796875,54.816182265625,117.15943796875,54.903372265625,117.06403796875,54.903372265625L116.18513996875,54.903372265625C116.07995346875,54.903372265625,116.00341796875,54.816182265625,116.00341796875,54.719502265624996L116.00341796875,48.326336265625ZM118.81204796875,51.223562265625C119.31841796875,51.223562265625,119.75803796875,50.779542265625,119.75803796875,50.238482265625C119.75803796875,49.726962265625,119.31841796875,49.301572265625,118.81204796875,49.301572265625L117.25484796875,49.301572265625L117.25484796875,51.223562265625L118.81204796875,51.223562265625Z" fill="#000000" fill-opacity="1" style="mix-blend-mode:passthrough"/></g><g><path d="M99.892111328125,28.394854375Q101.394411328125,26.986524375,95.45361132812499,25.990058575Q91.538211328125,25.508944375,90.15441132812501,27.501494375Q88.229011328125,31.827754374999998,85.397811328125,34.009694375C85.374911328125,34.027694374999996,85.351311328125,34.045694375,85.328111328125,34.063094375C82.788311328125,35.978684375,77.074331328125,38.594384375000004,72.214111328125,40.051084375L72.214111328125,42.925384375L76.711621328125,42.925384375C78.898771328125,41.094284375,84.330611328125,36.710684375,88.247611328125,34.938834375C88.247611328125,34.939044375,97.715711328125,30.507704375,99.892111328125,28.394854375Z" fill="#000000" fill-opacity="1" style="mix-blend-mode:passthrough"/></g><g><path d="M104.78605078125,10L72.21414048125,10L72.21414048125,23.072C72.68815078125,22.787300000000002,77.34051078125,19.885170000000002,73.02297078125,18.07282Q70.64792078125,16.60347,74.84409078125,15.81541Q83.45865078125,14.00521,81.84134078125,16.1071Q77.27799078125,18.19513,80.05059078125,19.092779999999998Q84.03635078125001,19.81492,89.29265078125,17.21666Q89.81225078125,16.78839,87.44425078125,16.34071Q82.63085078125,15.58141,89.10005078125,14.90032Q92.75825078125,14.78371,91.93035078125,14.04416Q89.88915078125,13.69355,90.73655078125,12.9931Q91.02525078125001,12.67673,90.64975078124999,12.25334Q90.60685078125,11.9761,91.76195078125,12.00525Q91.01125078125,12.0929,91.40095078125,12.5744Q91.54525078125,13.012270000000001,91.21325078125,13.23121Q90.94205078125,13.58144,92.05235078125,13.84458Q94.88125078125,14.61781,91.09795078125,14.93945Q84.32495078125,15.27031,88.17605078125,16.16563Q94.14455078125,16.74944,87.19375078125,18.870910000000002Q82.76555078125,20.4279,79.21310078125,19.69834Q74.90972078125,18.96794,79.18427078125,16.83691Q83.29995078125,15.143709999999999,78.41898078125,15.377320000000001Q72.15665354125,16.18497,74.00485078125,17.37258Q79.90619078125,19.435380000000002,74.47652078125,22.9681Q72.51355978125,24.5437,72.21431518125,25.4957L72.21431518125,37.5188C75.61906078125,36.459900000000005,83.90015078125,33.5445,86.53025078125,29.5295Q86.96135078125,28.4912,88.11355078125,27.4472L88.11315078125,27.4472Q89.63985078125,25.685499999999998,92.36125078124999,25.4687L92.36085078125001,25.468899999999998C93.17335078125001,25.3367,94.08895078124999,25.2924,95.11635078124999,25.3723Q106.35615078125,26.437,100.82105078125,30.216Q95.38685078125,33.857,91.99435078125,35.6603Q84.16455078125,40.267700000000005,81.90036078125,42.9259L104.78605078125,42.9259L104.78605078125,10Z" fill="#000000" fill-opacity="1" style="mix-blend-mode:passthrough"/></g></g></g></svg>