<svg xmlns="http://www.w3.org/2000/svg" xmlns:xlink="http://www.w3.org/1999/xlink" fill="none" version="1.1" width="176" height="64" viewBox="0 0 176 64"><defs><clipPath id="master_svg0_68_05095"><rect x="25" y="11" width="126" height="43" rx="0"/></clipPath></defs><g><g><rect x="0" y="0" width="176" height="64" rx="4" fill="#93E63F" fill-opacity="0.75"/></g><g clip-path="url(#master_svg0_68_05095)"><g><g><rect x="36.69970703125" y="27.265576168894768" width="11.115334510803223" height="18.055498123168945" rx="0" fill="#000000" fill-opacity="1" style="mix-blend-mode:passthrough"/></g><g><path d="M47.8039,11.855419918894768L25,11.855419918894768L25,22.988119918894768L47.8039,22.988119918894768L47.8039,27.265619918894767L59.5036,27.265619918894767L59.5036,16.132909918894768L47.8039,16.132909918894768L47.8039,11.855419918894768Z" fill="#000000" fill-opacity="1" style="mix-blend-mode:passthrough"/></g><g><path d="M87.05046015625,28.593990231394766L96.77216015625001,18.85707023139477L88.92736015625,10.977490231394768L79.20566015625,20.71440023139477L69.49519015625,11.000003331394767L61.63916015625,18.86833023139477L71.34962015625,28.593990231394766L61.63916015625,38.30839023139477L69.49519015625,46.176690231394765L79.20566015625,36.45109023139477L88.91616015625,46.176690231394765L96.77216015625001,38.30839023139477L87.05046015625,28.593990231394766ZM78.18296015625,35.437990231394764L75.27206015625,32.52249023139477L83.12806015625,24.654190231394768L86.03896015625,27.569590231394766L78.18296015625,35.437990231394764Z" fill="#000000" fill-opacity="1" style="mix-blend-mode:passthrough"/></g><g><path d="M99.0085453125,50.870750856394764C98.8736853125,51.25347085639477,98.7500553125,51.63619085639477,98.6039453125,52.01891085639477C98.4690853125,52.40164085639477,98.3342153125,52.77310085639477,98.1993453125,53.133310856394765L98.1319153125,53.133310856394765C98.0082953125,52.77310085639477,97.8846553125,52.40164085639477,97.7385553125,52.01891085639477C97.5924453125,51.63619085639477,97.4688153125,51.25347085639477,97.3451953125,50.870750856394764L95.5806723125,45.94038085639477L94.7939453125,45.94038085639477L97.7385553125,53.79745085639477L98.5927153125,53.79745085639477L101.5036053125,45.94038085639477L100.7730753125,45.94038085639477L99.0085453125,50.870750856394764Z" fill="#000000" fill-opacity="1" style="mix-blend-mode:passthrough"/></g><g><path d="M105.9766890625,45.74897460639477C105.5383690625,45.74897460639477,105.1225390625,45.85028260639477,104.7066890625,46.030388606394766C104.3020890625,46.22175060639477,103.9311990625,46.49190760639477,103.6165090625,46.85211460639477C103.2905790625,47.201064606394766,103.0433270625,47.64007460639477,102.8522630625,48.15787460639477C102.6611993625,48.675674606394765,102.5712890625,49.24976460639477,102.5712890625,49.891384606394766C102.5712890625,50.53300460639477,102.6724420625,51.107084606394764,102.8522630625,51.61363460639477C103.0433270625,52.12017460639477,103.3018220625,52.547924606394766,103.6277590625,52.90813460639477C103.9536890625,53.26834460639477,104.3358090625,53.52724460639477,104.7741290625,53.71860460639477C105.2124490625,53.89871460639477,105.6844790625,54.00002460639477,106.1902390625,54.00002460639477C106.7634190625,54.00002460639477,107.2466990625,53.921224606394766,107.6175890625,53.75237460639477C107.9884690625,53.58352460639477,108.3368790625,53.41467460639477,108.6515690625,53.223314606394766L108.3593590625,52.67174460639477C108.0671490625,52.88562460639477,107.7412190625,53.06572460639477,107.40404906250001,53.18954460639477C107.0556490625,53.31337460639477,106.6735190625,53.38091460639477,106.2576790625,53.38091460639477C105.8081190625,53.38091460639477,105.4035190625,53.29085460639477,105.0438690625,53.12201460639477C104.6842190625,52.953164606394765,104.3807690625,52.716774606394765,104.1222690625,52.42410460639477C103.8637790625,52.12017460639477,103.6727090625,51.75996460639477,103.5266080625,51.343474606394764C103.3805030625,50.92698460639477,103.3130650625,50.46546460639477,103.3018280625,49.98143460639477L108.9550290625,49.98143460639477C108.9775090625,49.880124606394766,108.9887390625,49.77881460639477,108.9887390625,49.68876460639477C108.9887390625,49.587454606394765,108.9887390625,49.49739460639477,108.9887390625,49.39609460639477C108.9887390625,48.23666460639477,108.7189990625,47.347394606394765,108.1907790625,46.71703460639477C107.6400590625,46.06415660639477,106.9095290625,45.74897460639477,105.9766890625,45.74897460639477ZM103.2905790625,49.38483460639477C103.3355370625,48.912064606394765,103.4366840625,48.49557460639477,103.5940290625,48.124104606394766C103.7513790625,47.752634606394764,103.9536790625,47.437454606394766,104.2009390625,47.17855460639477C104.4481990625,46.919654606394765,104.7179290625,46.71703460639477,105.0213790625,46.58195860639477C105.3248390625,46.44687860639477,105.6507590625,46.37934160639477,105.9879290625,46.37934160639477C106.6959790625,46.37934160639477,107.2579290625,46.62698760639477,107.6737790625,47.12227460639477C108.0896190625,47.617564606394765,108.2919190625,48.37175460639477,108.2919190625,49.384844606394765L103.2905790625,49.38483460639477Z" fill="#000000" fill-opacity="1" style="mix-blend-mode:passthrough"/></g><g><path d="M114.540917109375,45.74897460639477C113.990207109375,45.74897460639477,113.506937109375,45.88405460639477,113.091087109375,46.15421060639477C112.664017109375,46.42436760639477,112.248167109375,46.762064606394766,111.843570109375,47.156044606394765L111.798611109375,47.156044606394765L111.731180109375,45.94033760639477L111.113037109375,45.94033760639477L111.113037109375,53.797404606394764L111.832333109375,53.797404606394764L111.832333109375,47.87646460639477C112.315607109375,47.381174606394765,112.742687109375,47.02096460639477,113.124817109375,46.773324606394766C113.506937109375,46.52567560639477,113.934017109375,46.401856606394766,114.394817109375,46.401856606394766C115.035437109375,46.401856606394766,115.496237109375,46.604472606394765,115.777207109375,46.998454606394766C116.058177109375,47.392434606394765,116.193047109375,48.011544606394764,116.193047109375,48.85578460639477L116.193047109375,53.797404606394764L116.912347109375,53.797404606394764L116.912347109375,48.754474606394766C116.912347109375,47.73012460639477,116.721287109375,46.97594460639477,116.339157109375,46.48064960639477C115.957027109375,45.99661660639477,115.350127109375,45.74897460639477,114.540917109375,45.74897460639477Z" fill="#000000" fill-opacity="1" style="mix-blend-mode:passthrough"/></g><g><path d="M122.531670625,53.27952554389476C122.351850625,53.32454554389477,122.183270625,53.35831554389477,122.037150625,53.35831554389477C121.767420625,53.35831554389477,121.542640625,53.31329554389477,121.374050625,53.23449554389477C121.205470625,53.155695543894765,121.070600625,53.04313554389476,120.969450625,52.885545543894764C120.868300625,52.73920554389477,120.800870625,52.559105543894766,120.767150625,52.35648554389477C120.733440625,52.15386554389477,120.710960625,51.92873554389477,120.710960625,51.68108554389477L120.710960625,46.57061554389477L122.981230625,46.57061554389477L122.981230625,45.95150554389477L120.710960625,45.95150554389477L120.710960625,43.67768554389477L120.092820625,43.67768554389477L119.991660625,45.95150554389477L118.744140625,46.01904554389477L118.744140625,46.57061554389477L119.969190625,46.57061554389477L119.969190625,51.624805543894766C119.969190625,51.97375554389477,120.002910625,52.300195543894766,120.059100625,52.59286554389477C120.115290625,52.885545543894764,120.227680625,53.13318554389477,120.373790625,53.34706554389477C120.519890625,53.549675543894764,120.722190625,53.71848554389477,120.980700625,53.831085543894766C121.227950625,53.943685543894766,121.542640625,53.999985543894766,121.924770625,53.999985543894766C122.093360625,53.999985543894766,122.284420625,53.97738554389477,122.509200625,53.921185543894765C122.733980625,53.86488554389477,122.969990625,53.797285543894766,123.194770625,53.70728554389477L122.992470625,53.12192554389477C122.880080625,53.178215543894765,122.711500625,53.23449554389477,122.531670625,53.27952554389476Z" fill="#000000" fill-opacity="1" style="mix-blend-mode:passthrough"/></g><g><path d="M129.814356875,51.73750085639477C129.353566875,52.289070856394765,128.937716875,52.705570856394765,128.555596875,52.95321085639477C128.173466875,53.212110856394766,127.746386875,53.33593085639477,127.285586875,53.33593085639477C126.656206875,53.33593085639477,126.195406875,53.13332085639477,125.914436875,52.73934085639477C125.633461875,52.34536085639477,125.498592875,51.72625085639477,125.498592875,50.88201085639477L125.498592875,45.94038429162477L124.779296875,45.94038429162477L124.779296875,50.983310856394766C124.779296875,52.007660856394764,124.970360875,52.773110856394766,125.352480875,53.25714085639477C125.734608875,53.75243085639477,126.330276875,53.988810856394764,127.150716875,53.988810856394764C127.701426875,53.988810856394764,128.184696875,53.85373085639477,128.600546875,53.58358085639477C129.027626875,53.31342085639477,129.432226875,52.94195085639477,129.814346875,52.49169085639477L129.848066875,52.49169085639477L129.926736875,53.79745085639477L130.533646875,53.79745085639477L130.533646875,45.94038085639477L129.814346875,45.94038085639477L129.814356875,51.73750085639477Z" fill="#000000" fill-opacity="1" style="mix-blend-mode:passthrough"/></g><g><path d="M136.5017484375,45.74897460639477C136.0297084375,45.74897460639477,135.6138684375,45.906565606394764,135.2317384375,46.21049360639477C134.8608584375,46.51442160639477,134.5349254375,46.919654606394765,134.2764314375,47.40368460639477L134.2314724375,47.40368460639477L134.1640414375,45.95159460639477L133.5458984375,45.95159460639477L133.5458984375,53.80866460639477L134.2651944375,53.80866460639477L134.2651944375,48.461804606394765C134.5686484375,47.71887460639477,134.9170484375,47.20107460639477,135.2991784375,46.89714460639477C135.6813084375,46.59321860639477,136.0521884375,46.446885606394765,136.4005984375,46.446885606394765C136.5579484375,46.446885606394765,136.6815684375,46.458142606394766,136.7714784375,46.46939960639477C136.8726384375,46.48065660639477,136.9850284375,46.52568260639477,137.1198884375,46.57070760639477L137.2772384375,45.91782960639477C137.1423684375,45.85028960639477,137.0187384375,45.80526420639477,136.90634843750001,45.78274970639477C136.7939584375,45.760228406394766,136.6478584375,45.74897460639477,136.5017484375,45.74897460639477Z" fill="#000000" fill-opacity="1" style="mix-blend-mode:passthrough"/></g><g><path d="M141.32336875,45.74897460639477C140.88504875,45.74897460639477,140.46921875,45.85028260639477,140.05336875,46.030388606394766C139.64876875,46.22175060639477,139.27787875,46.49190760639477,138.96318875,46.85211460639477C138.63725875,47.201064606394766,138.39000675,47.64007460639477,138.19894275,48.15787460639477C138.00787905,48.675674606394765,137.91796875,49.24976460639477,137.91796875,49.891384606394766C137.91796875,50.53300460639477,138.01912175,51.107084606394764,138.19894275,51.61363460639477C138.39000675,52.12017460639477,138.64850175,52.547924606394766,138.97443875,52.90813460639477C139.30036875,53.26834460639477,139.68248875,53.52724460639477,140.12080875,53.71860460639477C140.55912875,53.89871460639477,141.03115875,54.00002460639477,141.53691875,54.00002460639477C142.11009875,54.00002460639477,142.59337875,53.921224606394766,142.96425875,53.75237460639477C143.33514875,53.58352460639477,143.68355875,53.41467460639477,143.99823875,53.223314606394766L143.70602875,52.67174460639477C143.41381875,52.88562460639477,143.08788875,53.06572460639477,142.75071875,53.18954460639477C142.40230875,53.31337460639477,142.02017875,53.38091460639477,141.60434875,53.38091460639477C141.15478875,53.38091460639477,140.75018875,53.29085460639477,140.39052875,53.12201460639477C140.03088875,52.953164606394765,139.72742875,52.716774606394765,139.46893875,52.42410460639477C139.21043875,52.12017460639477,139.01937875,51.75996460639477,138.87327375,51.343474606394764C138.72716875,50.92698460639477,138.65973075,50.46546460639477,138.64849475,49.98143460639477L144.30169875,49.98143460639477C144.32416875,49.880124606394766,144.33541875,49.77881460639477,144.33541875,49.68876460639477C144.33541875,49.587454606394765,144.33541875,49.49739460639477,144.33541875,49.39609460639477C144.33541875,48.23666460639477,144.06567875,47.347394606394765,143.53745875,46.71703460639477C142.99797875,46.06415660639477,142.25620875,45.74897460639477,141.32336875,45.74897460639477ZM138.63725875,49.38483460639477C138.68221675,48.912064606394765,138.78336375,48.49557460639477,138.94070875,48.124104606394766C139.09805875,47.752634606394764,139.30035875,47.437454606394766,139.54761875,47.17855460639477C139.79487875,46.919654606394765,140.06460875,46.71703460639477,140.36805875,46.58195860639477C140.67150875,46.44687860639477,140.99743875,46.37934160639477,141.33460875,46.37934160639477C142.04266875,46.37934160639477,142.60461875,46.62698760639477,143.02045875,47.12227460639477C143.43628875,47.617564606394765,143.63859875,48.37175460639477,143.63859875,49.384844606394765L138.63725875,49.38483460639477Z" fill="#000000" fill-opacity="1" style="mix-blend-mode:passthrough"/></g><g><path d="M150.764008515625,50.82570413764477C150.606668515625,50.566804137644766,150.415608515625,50.352934137644766,150.168338515625,50.17282413764477C149.921088515625,49.99272413764477,149.651348515625,49.846394137644765,149.347888515625,49.73382413764477C149.044448515625,49.610004137644765,148.740988515625,49.49743413764477,148.437538515625,49.373614137644765C148.212758515625,49.28356413764477,147.987978515625,49.193504137644766,147.763198515625,49.10345413764477C147.538418515625,49.01340413764477,147.336118515625,48.90084413764477,147.167528515625,48.78827413764477C146.987708515625,48.66445413764477,146.852838515625,48.529374137644766,146.751698515625,48.37178413764477C146.650538515625,48.21419413764477,146.594348515625,48.02282413764477,146.594348515625,47.786444137644764C146.594348515625,47.606334137644765,146.628068515625,47.437484137644766,146.695498515625,47.25738413764477C146.762928515625,47.07727413764477,146.875318515625,46.930944137644765,147.021428515625,46.79586413764477C147.167548515625,46.660782137644766,147.347368515625,46.55947413764477,147.572148515625,46.48068013764477C147.785688515625,46.40188313764477,148.055428515625,46.35685713764477,148.358868515625,46.35685713764477C148.763468515625,46.35685713764477,149.111878515625,46.42439713764477,149.404098515625,46.55947413764477C149.696308515625,46.694554137644765,149.977288515625,46.86340413764477,150.235788515625,47.05476413764477L150.629148515625,46.54821713764477C150.348178515625,46.31182813764477,149.999768515625,46.10921213764477,149.606408515625,45.962875137644765C149.213048515625,45.816541337644765,148.808448515625,45.73774413764477,148.392598515625,45.73774413764477C147.976758515625,45.73774413764477,147.617108515625,45.794026837644765,147.302418515625,45.906592137644765C146.987728515625,46.019158137644766,146.729238515625,46.165491137644764,146.504458515625,46.35685413764477C146.290914515625,46.54821713764477,146.122330515625,46.77334413764477,146.009940515625,47.03224413764477C145.897550515625,47.291144137644764,145.841355515625,47.56130413764477,145.841355515625,47.842724137644765C145.841355515625,48.18041413764477,145.920023515625,48.47308413764477,146.066135515625,48.69821413764477C146.212247515625,48.93460413764477,146.403304515625,49.137224137644765,146.650558515625,49.30607413764477C146.897808515625,49.47491413764477,147.156308515625,49.62125413764477,147.459758515625,49.745074137644764C147.763198515625,49.868894137644766,148.055428515625,49.981464137644764,148.347638515625,50.094024137644766C148.572418515625,50.18408413764477,148.797198515625,50.274134137644765,149.021978515625,50.37544413764477C149.246748515625,50.47675413764477,149.449058515625,50.58931413764477,149.640118515625,50.724394137644765C149.819938515625,50.85947413764477,149.977288515625,51.017064137644766,150.089678515625,51.197174137644765C150.202068515625,51.37727413764477,150.258258515625,51.591154137644764,150.258258515625,51.83879413764477C150.258258515625,52.25529413764477,150.100908515625,52.61549413764477,149.786228515625,52.93068413764477C149.471528515625,53.245864137644766,149.010738515625,53.403454137644765,148.392598515625,53.403454137644765C147.830648515625,53.403454137644765,147.347368515625,53.30215413764477,146.965248515625,53.11078413764477C146.583128515625,52.91942413764477,146.223483515625,52.68304413764477,145.886314515625,52.40162413764477L145.459228515625,52.94194413764477C145.807633515625,53.23461413764477,146.223483515625,53.493514137644766,146.717988515625,53.707384137644766C147.212508515625,53.921254137644766,147.751968515625,54.022564137644764,148.336398515625,54.022564137644764C148.763488515625,54.022564137644764,149.134368515625,53.96628413764477,149.460298515625,53.84246413764477C149.786228515625,53.71863413764477,150.067198515625,53.56104413764477,150.291978515625,53.358434137644764C150.51675851562499,53.15581413764477,150.696578515625,52.91942413764477,150.808968515625,52.64926413764477C150.921358515625,52.37911413764477,150.977558515625,52.097694137644766,150.977558515625,51.805024137644764C151.000028515625,51.39979413764477,150.921358515625,51.08461413764477,150.764008515625,50.82570413764477Z" fill="#000000" fill-opacity="1" style="mix-blend-mode:passthrough"/></g></g></g></g></svg>